<?xml version="1.0" encoding="iso-8859-1"?>
<!-- Generator: Adobe Illustrator 22.1.0, SVG Export Plug-In . SVG Version: 6.00 Build 0)  -->
<svg xmlns="http://www.w3.org/2000/svg" xmlns:xlink="http://www.w3.org/1999/xlink" version="1.1" id="Layer_1" x="0px" y="0px" viewBox="0 0 64 64" style="enable-background:new 0 0 64 64;" xml:space="preserve" width="128px" height="128px">
<path style="fill:#85CBF8;" d="M8,12h48c1.105,0,2,0.895,2,2v42c0,1.105-0.895,2-2,2H8c-1.105,0-2-0.895-2-2V14  C6,12.895,6.895,12,8,12z"/>
<path style="fill:#ED7899;" d="M10,52h44c2.209,0,4,1.791,4,4l0,0c0,1.1-0.9,2-2,2H8c-1.1,0-2-0.9-2-2l0,0C6,53.791,7.791,52,10,52z  "/>
<path style="fill:#ACE3FF;" d="M8,12h48c1.105,0,2,0.895,2,2v6c0,1.657-1.343,3-3,3H9c-1.657,0-3-1.343-3-3v-6  C6,12.895,6.895,12,8,12z"/>
<path style="fill:#FFEFB8;" d="M16,6c1.105,0,2,0.895,2,2v8c0,1.105-0.895,2-2,2s-2-0.895-2-2V8C14,6.895,14.895,6,16,6z"/>
<path style="fill:#FFEFB8;" d="M32,6c1.105,0,2,0.895,2,2v8c0,1.105-0.895,2-2,2s-2-0.895-2-2V8C30,6.895,30.895,6,32,6z"/>
<path style="fill:#FFEFB8;" d="M48,6c1.105,0,2,0.895,2,2v8c0,1.105-0.895,2-2,2s-2-0.895-2-2V8C46,6.895,46.895,6,48,6z"/>
<path style="fill:#9FDDFF;" d="M12.5,31l1.238,2.262L16,34.5l-2.262,1.238L12.5,38l-1.238-2.262L9,34.5l2.262-1.238L12.5,31z"/>
<path style="fill:#9FDDFF;" d="M52.502,39l0.876,1.61L55,41.502l-1.622,0.876L52.502,44l-0.892-1.622L50,41.502l1.61-0.892  L52.502,39z"/>
<path style="fill:#9FDDFF;" d="M10.502,45l0.536,0.962L12,46.498l-0.962,0.529L10.502,48l-0.529-0.973L9,46.498l0.973-0.536  L10.502,45z"/>
<rect x="23" y="29" style="fill:#FFFFFF;" width="9" height="9"/>
<rect x="14" y="29" style="fill:#FFFFFF;" width="9" height="9"/>
<rect x="32" y="29" style="fill:#FFFFFF;" width="9" height="9"/>
<rect x="41" y="29" style="fill:#FAEFDE;" width="9" height="9"/>
<rect x="14" y="38" style="fill:#FFFFFF;" width="9" height="9"/>
<rect x="23" y="38" style="fill:#FFFFFF;" width="9" height="9"/>
<rect x="32" y="38" style="fill:#FFFFFF;" width="9" height="9"/>
<rect x="41" y="38" style="fill:#FAEFDE;" width="9" height="9"/>
<path style="fill:#8D6C9F;" d="M12,25c0.551,0,1-0.449,1-1v-2c0-0.551-0.449-1-1-1s-1,0.449-1,1v2C11,24.551,11.449,25,12,25z"/>
<path style="fill:#8D6C9F;" d="M17,25c0.551,0,1-0.449,1-1v-2c0-0.551-0.449-1-1-1s-1,0.449-1,1v2C16,24.551,16.449,25,17,25z"/>
<path style="fill:#8D6C9F;" d="M22,25c0.551,0,1-0.449,1-1v-2c0-0.551-0.449-1-1-1s-1,0.449-1,1v2C21,24.551,21.449,25,22,25z"/>
<path style="fill:#8D6C9F;" d="M27,25c0.551,0,1-0.449,1-1v-2c0-0.551-0.449-1-1-1s-1,0.449-1,1v2C26,24.551,26.449,25,27,25z"/>
<path style="fill:#8D6C9F;" d="M32,25c0.551,0,1-0.449,1-1v-2c0-0.551-0.449-1-1-1c-0.551,0-1,0.449-1,1v2  C31,24.551,31.449,25,32,25z"/>
<path style="fill:#8D6C9F;" d="M37,25c0.551,0,1-0.449,1-1v-2c0-0.551-0.449-1-1-1s-1,0.449-1,1v2C36,24.551,36.449,25,37,25z"/>
<path style="fill:#8D6C9F;" d="M42,25c0.551,0,1-0.449,1-1v-2c0-0.551-0.449-1-1-1s-1,0.449-1,1v2C41,24.551,41.449,25,42,25z"/>
<path style="fill:#8D6C9F;" d="M47,25c0.551,0,1-0.449,1-1v-2c0-0.551-0.449-1-1-1s-1,0.449-1,1v2C46,24.551,46.449,25,47,25z"/>
<path style="fill:#8D6C9F;" d="M52,25c0.551,0,1-0.449,1-1v-2c0-0.551-0.449-1-1-1s-1,0.449-1,1v2C51,24.551,51.449,25,52,25z"/>
<path style="fill:#8D6C9F;" d="M54,51H10c-0.551,0-1,0.449-1,1s0.449,1,1,1h44c0.551,0,1-0.449,1-1S54.551,51,54,51z"/>
<path style="fill:#8D6C9F;" d="M56,11h-5V8c0-1.656-1.344-3-3-3s-3,1.344-3,3v3H35V8c0-1.656-1.344-3-3-3s-3,1.344-3,3v3H19V8  c0-1.656-1.344-3-3-3s-3,1.344-3,3v3H8c-1.656,0-3,1.344-3,3v42c0,1.656,1.344,3,3,3h48c1.656,0,3-1.344,3-3V14  C59,12.344,57.656,11,56,11z M47,8c0-0.551,0.449-1,1-1s1,0.449,1,1v8c0,0.551-0.449,1-1,1s-1-0.449-1-1V8z M31,8  c0-0.551,0.449-1,1-1c0.551,0,1,0.449,1,1v8c0,0.551-0.449,1-1,1c-0.551,0-1-0.449-1-1V8z M15,8c0-0.551,0.449-1,1-1  c0.551,0,1,0.449,1,1v8c0,0.551-0.449,1-1,1c-0.551,0-1-0.449-1-1V8z M57,56c0,0.551-0.449,1-1,1H8c-0.551,0-1-0.449-1-1V25  c0.551,0,1-0.449,1-1v-2c0-0.551-0.449-1-1-1v-7c0-0.551,0.449-1,1-1h5v3c0,1.656,1.344,3,3,3s3-1.344,3-3v-3h10v3  c0,1.656,1.344,3,3,3c1.656,0,3-1.344,3-3v-3h10v3c0,1.656,1.344,3,3,3s3-1.344,3-3v-3h5c0.551,0,1,0.449,1,1v7  c-0.551,0-1,0.449-1,1v2c0,0.551,0.449,1,1,1V56z"/>
<path style="fill:#8D6C9F;" d="M50,28H14c-0.552,0-1,0.448-1,1v18c0,0.552,0.448,1,1,1h36c0.552,0,1-0.448,1-1V29  C51,28.448,50.552,28,50,28z M49,37h-7v-7h7V37z M40,37h-7v-7h7V37z M31,37h-7v-7h7V37z M15,30h7v7h-7V30z M15,39h7v7h-7V39z M24,39  h7v7h-7V39z M33,39h7v7h-7V39z M49,46h-7v-7h7V46z"/>
</svg>
